<svg xmlns="http://www.w3.org/2000/svg" viewBox="0 0 361.13 421.058">
  <defs>
    <style>
      .cls-1, .cls-10, .cls-13, .cls-2, .cls-3, .cls-4, .cls-8, .cls-9 {
        fill: none;
      }

      .cls-1, .cls-12, .cls-4, .cls-7 {
        stroke: #05386b;
      }

      .cls-1, .cls-12 {
        stroke-width: 5px;
      }

      .cls-3 {
        stroke: #707070;
      }

      .cls-11, .cls-15, .cls-5 {
        fill: #05386b;
      }

      .cls-5 {
        font-size: 12px;
        font-family: Krungthep;
      }

      .cls-6 {
        fill: rgba(5,56,107,0.61);
        stroke: rgba(112,112,112,0);
      }

      .cls-7 {
        fill: rgba(164,208,158,0.19);
      }

      .cls-8 {
        stroke: rgba(5,56,107,0.96);
      }

      .cls-9 {
        stroke: red;
      }

      .cls-10 {
        stroke: lime;
      }

      .cls-11 {
        stroke: rgba(142,139,139,0.31);
      }

      .cls-12 {
        fill: rgba(255,255,255,0);
      }

      .cls-14, .cls-15 {
        stroke: none;
      }
    </style>
  </defs>
  <g id="Group_12" data-name="Group 12" transform="translate(-2432.039 -4308.862)">
    <g id="Ellipse_17" data-name="Ellipse 17" class="cls-1" transform="translate(2793.169 4430.008) rotate(180)">
      <ellipse class="cls-14" cx="8.234" cy="14.655" rx="8.234" ry="14.655"/>
      <ellipse class="cls-2" cx="8.234" cy="14.655" rx="5.734" ry="12.155"/>
    </g>
    <path id="Path_7" data-name="Path 7" class="cls-2" d="M.179,0A10.367,10.367,0,0,1,5.507,4.162,34.028,34.028,0,0,1,7.3,9.483a29.82,29.82,0,0,1,.346,8.941,31.315,31.315,0,0,1-1.285,4.523c-.823,2.163-.811,3.416-3.577,4.793S0,27.258,0,27.258" transform="translate(2785.553 4430.008) rotate(180)"/>
    <path id="Path_8" data-name="Path 8" class="cls-3" d="M.764,0C.632.242,0,0,0,0V1.028" transform="translate(2786.387 4430.008) rotate(180)"/>
    <g id="Ellipse_18" data-name="Ellipse 18" class="cls-4" transform="translate(2614.085 4642.991)">
      <ellipse class="cls-14" cx="2.058" cy="1.954" rx="2.058" ry="1.954"/>
      <ellipse class="cls-2" cx="2.058" cy="1.954" rx="1.558" ry="1.454"/>
    </g>
    <text id="TYP01" class="cls-5" transform="translate(2597.734 4635.451)"><tspan x="0" y="0">TYP01</tspan></text>
    <g id="Ellipse_21" data-name="Ellipse 21" class="cls-6" transform="translate(2558.448 4710.38)">
      <ellipse class="cls-14" cx="58.666" cy="9.77" rx="58.666" ry="9.77"/>
      <ellipse class="cls-2" cx="58.666" cy="9.77" rx="58.166" ry="9.27"/>
    </g>
    <g id="Rectangle_4" data-name="Rectangle 4" class="cls-1" transform="translate(2548.214 4517.937)">
      <rect class="cls-14" width="133.799" height="179.765" rx="52"/>
      <rect class="cls-2" x="2.5" y="2.5" width="128.799" height="174.765" rx="49.5"/>
    </g>
    <path id="Path_9" data-name="Path 9" class="cls-4" d="M1046.6,597c3.666,25.206,10.457,40.643,14.516,48.15a40.1,40.1,0,0,0,2.744,4.494" transform="translate(1542.223 3926.918)"/>
    <path id="Path_10" data-name="Path 10" class="cls-4" d="M1056.929,597c-2.194,24.139-6.256,38.929-8.684,46.114a45.123,45.123,0,0,1-1.647,4.3" transform="translate(1585.883 3927.182)"/>
    <g id="Rectangle_5" data-name="Rectangle 5" class="cls-4" transform="translate(2589.383 4568.74)">
      <rect class="cls-14" width="53.52" height="80.113" rx="6"/>
      <rect class="cls-2" x="0.5" y="0.5" width="52.52" height="79.113" rx="5.5"/>
    </g>
    <g id="Rectangle_6" data-name="Rectangle 6" class="cls-7" transform="translate(2593.5 4574.602)">
      <rect class="cls-14" width="45.286" height="68.389" rx="6"/>
      <rect class="cls-2" x="0.5" y="0.5" width="44.286" height="67.389" rx="5.5"/>
    </g>
    <path id="Path_1" data-name="Path 1" class="cls-4" d="M17.332.052c9.551-.008,17.286,5.26,17.28,11.761S26.861,23.589,17.31,23.6.024,18.333.03,11.832,7.779.061,17.332.052Z" transform="translate(2599.627 4597.344) rotate(1)"/>
    <path id="Path_2" data-name="Path 2" class="cls-4" d="M17.327,21.64a19.771,19.771,0,0,0,11.026-3.09c2.712-1.847,4.206-4.239,4.208-6.735s-1.491-4.889-4.2-6.734A19.748,19.748,0,0,0,17.323,2.006,19.771,19.771,0,0,0,6.3,5.1C3.585,6.943,2.09,9.335,2.089,11.831s1.491,4.889,4.2,6.734A19.74,19.74,0,0,0,17.319,21.64h.007m0,1.954h-.007C7.766,23.6.026,18.334.03,11.833S7.777.061,17.324.052h.008c9.551-.006,17.291,5.26,17.287,11.761S26.872,23.586,17.325,23.594Z" transform="translate(2599.626 4597.343) rotate(1)"/>
    <path id="Path_4" data-name="Path 4" class="cls-8" d="M16.2.049c5.434.1,3.466,10.978,3.466,10.978L.545,11.044S-1.966-.451,3.949.055A85.281,85.281,0,0,0,16.2.049Z" transform="translate(2606.69 4604.075) rotate(1)"/>
    <g id="Ellipse_20" data-name="Ellipse 20" class="cls-9" transform="translate(2609.968 4578.51)">
      <ellipse class="cls-14" cx="1.781" cy="1.721" rx="1.781" ry="1.721"/>
      <ellipse class="cls-2" cx="1.781" cy="1.721" rx="1.281" ry="1.221"/>
    </g>
    <g id="Rectangle_7" data-name="Rectangle 7" class="cls-10" transform="translate(2614.124 4578.51)">
      <rect class="cls-14" width="3.86" height="3.445" rx="0.881"/>
      <rect class="cls-2" x="0.5" y="0.5" width="2.86" height="2.445" rx="0.381"/>
    </g>
    <g id="Rectangle_8" data-name="Rectangle 8" class="cls-10" transform="translate(2618.282 4578.51)">
      <rect class="cls-14" width="3.86" height="3.445" rx="0.881"/>
      <rect class="cls-2" x="0.5" y="0.5" width="2.86" height="2.445" rx="0.381"/>
    </g>
    <g id="Rectangle_9" data-name="Rectangle 9" class="cls-10" transform="translate(2609.968 4582.484)">
      <rect class="cls-14" width="3.86" height="3.445" rx="0.881"/>
      <rect class="cls-2" x="0.5" y="0.5" width="2.86" height="2.445" rx="0.381"/>
    </g>
    <g id="Rectangle_10" data-name="Rectangle 10" class="cls-10" transform="translate(2609.968 4586.458)">
      <rect class="cls-14" width="3.86" height="3.445" rx="0.881"/>
      <rect class="cls-2" x="0.5" y="0.5" width="2.86" height="2.445" rx="0.381"/>
    </g>
    <g id="Rectangle_11" data-name="Rectangle 11" class="cls-10" transform="translate(2614.124 4582.484)">
      <rect class="cls-14" width="3.86" height="3.445" rx="0.881"/>
      <rect class="cls-2" x="0.5" y="0.5" width="2.86" height="2.445" rx="0.381"/>
    </g>
    <g id="Rectangle_13" data-name="Rectangle 13" class="cls-10" transform="translate(2614.124 4586.458)">
      <rect class="cls-14" width="3.86" height="3.445" rx="0.881"/>
      <rect class="cls-2" x="0.5" y="0.5" width="2.86" height="2.445" rx="0.381"/>
    </g>
    <g id="Rectangle_14" data-name="Rectangle 14" class="cls-10" transform="translate(2618.282 4586.458)">
      <rect class="cls-14" width="3.86" height="3.445" rx="0.881"/>
      <rect class="cls-2" x="0.5" y="0.5" width="2.86" height="2.445" rx="0.381"/>
    </g>
    <g id="Rectangle_15" data-name="Rectangle 15" class="cls-10" transform="translate(2614.124 4590.697)">
      <rect class="cls-14" width="3.86" height="3.445" rx="0.881"/>
      <rect class="cls-2" x="0.5" y="0.5" width="2.86" height="2.445" rx="0.381"/>
    </g>
    <g id="Rectangle_16" data-name="Rectangle 16" class="cls-10" transform="translate(2609.968 4590.697)">
      <rect class="cls-14" width="3.86" height="3.445" rx="0.881"/>
      <rect class="cls-2" x="0.5" y="0.5" width="2.86" height="2.445" rx="0.381"/>
    </g>
    <g id="Ellipse_3" data-name="Ellipse 3" class="cls-1" transform="translate(2439.117 4308.862)">
      <ellipse class="cls-14" cx="173.939" cy="101.606" rx="173.939" ry="101.606"/>
      <ellipse class="cls-2" cx="173.939" cy="101.606" rx="171.439" ry="99.106"/>
    </g>
    <path id="Path_3" data-name="Path 3" class="cls-1" d="M1119.468,261.4s4.666.2,3.711.408c-17.729,4.1-128.863,28.137-239.76-.154" transform="translate(1609.137 4079.509)"/>
    <path id="Path_4-2" data-name="Path 4" class="cls-1" d="M826.86,253.679c54.623.854,34.94,94.768,34.94,94.768H669.47s-25.329-99.18,34.17-94.768S826.86,253.679,826.86,253.679Z" transform="translate(1847.282 4120.854)"/>
    <g id="Ellipse_4" data-name="Ellipse 4" class="cls-1" transform="translate(2523.534 4396.124)">
      <ellipse class="cls-14" cx="30.928" cy="29.065" rx="30.928" ry="29.065"/>
      <ellipse class="cls-2" cx="30.928" cy="29.065" rx="28.428" ry="26.565"/>
    </g>
    <g id="Ellipse_5" data-name="Ellipse 5" class="cls-11" transform="translate(2550.425 4421.405)">
      <ellipse class="cls-14" cx="4.039" cy="3.785" rx="4.039" ry="3.785"/>
      <ellipse class="cls-2" cx="4.039" cy="3.785" rx="3.539" ry="3.285"/>
    </g>
    <g id="Ellipse_15" data-name="Ellipse 15" class="cls-1" transform="translate(2789.052 4445.64) rotate(180)">
      <ellipse class="cls-14" cx="13.38" cy="30.287" rx="13.38" ry="30.287"/>
      <ellipse class="cls-2" cx="13.38" cy="30.287" rx="10.88" ry="27.787"/>
    </g>
    <g id="Ellipse_16" data-name="Ellipse 16" class="cls-1" transform="translate(2789.052 4441.732) rotate(180)">
      <ellipse class="cls-14" cx="10.292" cy="26.379" rx="10.292" ry="26.379"/>
      <ellipse class="cls-2" cx="10.292" cy="26.379" rx="7.792" ry="23.879"/>
    </g>
    <g id="Ellipse_19" data-name="Ellipse 19" class="cls-12" transform="translate(2539.98 4312)">
      <ellipse class="cls-14" cx="74.104" cy="15.04" rx="74.104" ry="15.04"/>
      <ellipse class="cls-2" cx="74.104" cy="15.04" rx="71.604" ry="12.54"/>
    </g>
    <path id="Path_35" data-name="Path 35" class="cls-1" d="M1127.123,653.612c-.274,10.4,15.634,11.839,24.461,8.973,5.543-1.8,5.084-8.973,5.084-8.973" transform="translate(1472.802 3828.395)"/>
    <g id="Rectangle_17" data-name="Rectangle 17" class="cls-13" transform="matrix(0.966, 0.259, -0.259, 0.966, 2697.66, 4555.563)">
      <path class="cls-14" d="M25.955,3.064,60.829,2.62c13.6-.173,24.477,10.222,24.3,23.218S73.8,49.51,60.2,49.683l-34.875.444C11.732,50.3.851,39.905,1.024,26.909S12.359,3.237,25.955,3.064Z"/>
      <path class="cls-15" d="M 24.9935474395752 45.12936782836914 C 25.08329963684082 45.12936782836914 25.17437744140625 45.12879943847656 25.26440811157227 45.12764739990234 L 60.13897705078125 44.68363189697266 C 71.02716064453125 44.54499816894531 79.996826171875 36.06109237670898 80.13387298583984 25.77158355712891 C 80.19625091552734 21.08770751953125 78.39984130859375 16.65284538269043 75.07551574707031 13.28395366668701 C 73.33303833007812 11.51810741424561 71.26589965820312 10.12795352935791 68.93153381347656 9.152107238769531 C 66.49620819091797 8.134061813354492 63.88283920288086 7.617861270904541 61.16399383544922 7.617861270904541 C 61.07423782348633 7.617861270904541 60.98316192626953 7.618430614471436 60.89314651489258 7.619584560394287 L 26.01854705810547 8.063614845275879 C 15.13039302825928 8.202230453491211 6.160731315612793 16.68613815307617 6.023669719696045 26.97564697265625 C 5.96128511428833 31.65953826904297 7.757715702056885 36.09438323974609 11.08203887939453 39.46327590942383 C 12.8245153427124 41.22912216186523 14.8916540145874 42.61927795410156 17.22602272033691 43.59512329101562 C 19.66134643554688 44.6131706237793 22.27471542358398 45.12936782836914 24.9935474395752 45.12936782836914 M 24.99355125427246 50.12937545776367 C 11.55355644226074 50.12937545776367 0.8524391651153564 39.79890823364258 1.024115800857544 26.90906143188477 C 1.197223424911499 13.91290760040283 12.35911560058594 3.237107515335083 25.95490074157715 3.06401515007019 L 60.82948684692383 2.61998438835144 C 60.94068145751953 2.618568897247314 61.05315780639648 2.617853879928589 61.16398620605469 2.617853879928589 C 74.60399627685547 2.617853879928589 85.30511474609375 12.94832229614258 85.1334228515625 25.83818435668945 C 84.96033477783203 38.8343391418457 73.79843902587891 49.51012420654297 60.20264053344727 49.68323135375977 L 25.32805442810059 50.12724685668945 C 25.21685791015625 50.128662109375 25.10437965393066 50.12937545776367 24.99355125427246 50.12937545776367 Z"/>
    </g>
    <g id="Rectangle_18" data-name="Rectangle 18" class="cls-13" transform="matrix(0.966, 0.259, -0.259, 0.966, 2469.172, 4524.299)">
      <path class="cls-14" d="M25.955,3.064,60.829,2.62c13.6-.173,24.477,10.222,24.3,23.218S73.8,49.51,60.2,49.683l-34.875.444C11.732,50.3.851,39.905,1.024,26.909S12.359,3.237,25.955,3.064Z"/>
      <path class="cls-15" d="M 24.9935474395752 45.12936782836914 C 25.08329963684082 45.12936782836914 25.17437744140625 45.12879943847656 25.26440811157227 45.12764739990234 L 60.13897705078125 44.68363189697266 C 71.02716064453125 44.54499816894531 79.996826171875 36.06109237670898 80.13387298583984 25.77158355712891 C 80.19625091552734 21.08770751953125 78.39984130859375 16.65284538269043 75.07551574707031 13.28395366668701 C 73.33303833007812 11.51810741424561 71.26589965820312 10.12795352935791 68.93153381347656 9.152107238769531 C 66.49620819091797 8.134061813354492 63.88283920288086 7.617861270904541 61.16399383544922 7.617861270904541 C 61.07423782348633 7.617861270904541 60.98316192626953 7.618430614471436 60.89314651489258 7.619584560394287 L 26.01854705810547 8.063614845275879 C 15.13039302825928 8.202230453491211 6.160731315612793 16.68613815307617 6.023669719696045 26.97564697265625 C 5.96128511428833 31.65953826904297 7.757715702056885 36.09438323974609 11.08203887939453 39.46327590942383 C 12.8245153427124 41.22912216186523 14.8916540145874 42.61927795410156 17.22602272033691 43.59512329101562 C 19.66134643554688 44.6131706237793 22.27471542358398 45.12936782836914 24.9935474395752 45.12936782836914 M 24.99355125427246 50.12937545776367 C 11.55355644226074 50.12937545776367 0.8524391651153564 39.79890823364258 1.024115800857544 26.90906143188477 C 1.197223424911499 13.91290760040283 12.35911560058594 3.237107515335083 25.95490074157715 3.06401515007019 L 60.82948684692383 2.61998438835144 C 60.94068145751953 2.618568897247314 61.05315780639648 2.617853879928589 61.16398620605469 2.617853879928589 C 74.60399627685547 2.617853879928589 85.30511474609375 12.94832229614258 85.1334228515625 25.83818435668945 C 84.96033477783203 38.8343391418457 73.79843902587891 49.51012420654297 60.20264053344727 49.68323135375977 L 25.32805442810059 50.12724685668945 C 25.21685791015625 50.128662109375 25.10437965393066 50.12937545776367 24.99355125427246 50.12937545776367 Z"/>
    </g>
    <g id="Ellipse_17-2" data-name="Ellipse 17" class="cls-13" transform="matrix(0.999, 0.035, -0.035, 0.999, 2551.596, 4558.815)">
      <path class="cls-14" d="M7.308.044C11.286.037,14.5,6.593,14.484,14.687S11.232,29.348,7.253,29.355.061,22.807.076,14.713,3.329.051,7.308.044Z"/>
      <path class="cls-15" d="M 7.246429920196533 29.35545921325684 L 7.251090049743652 28.35544967651367 C 8.753029823303223 28.3527889251709 10.28639984130859 26.98822975158691 11.45804023742676 24.61166000366211 C 12.75771045684814 21.97539901733398 13.47735023498535 18.45005989074707 13.48439025878906 14.68504905700684 C 13.49429035186768 9.394839286804199 12.03857040405273 4.511709213256836 9.775779724121094 2.24467945098877 C 8.98054027557373 1.447949409484863 8.15231990814209 1.043979406356812 7.309470176696777 1.043989419937134 C 5.807529926300049 1.04664945602417 4.274159908294678 2.411209344863892 3.102520227432251 4.787779331207275 C 1.802850127220154 7.424039363861084 1.083210110664368 10.94937896728516 1.076170086860657 14.71437931060791 C 1.066270112991333 20.00458908081055 2.521990060806274 24.88772964477539 4.784780025482178 27.15476036071777 C 5.580019950866699 27.95148849487305 6.40824031829834 28.35545921325684 7.246429920196533 28.35545921325684 L 7.246429920196533 29.35545921325684 M 7.246430397033691 29.35545539855957 C 3.270401000976562 29.35545539855957 0.06103750690817833 22.80269813537598 0.07617011666297913 14.71250915527344 C 0.09131011366844177 6.618379592895508 3.328980207443237 0.05104942992329597 7.307700157165527 0.04398942738771439 C 7.309642791748047 0.04398597776889801 7.312187671661377 0.04398372769355774 7.314129829406738 0.04398372769355774 C 11.29015922546387 0.04398372769355774 14.4995231628418 6.596741676330566 14.48439025878906 14.68691921234131 C 14.4692497253418 22.78106880187988 11.23157978057861 29.348388671875 7.252860069274902 29.35544967651367 C 7.250917434692383 29.35545349121094 7.248372554779053 29.35545539855957 7.246430397033691 29.35545539855957 Z"/>
    </g>
    <path id="Path_7-2" data-name="Path 7" class="cls-4" d="M.37,0A10.313,10.313,0,0,1,5.689,4.155,33.9,33.9,0,0,1,7.472,9.473,29.814,29.814,0,0,1,7.8,18.414,31.416,31.416,0,0,1,6.508,22.94c-.827,2.165-.817,3.417-3.586,4.8S.14,27.262.14,27.262" transform="matrix(0.999, 0.035, -0.035, 0.999, 2557.059, 4559.051)"/>
    <path id="Path_36" data-name="Path 36" class="cls-1" d="M1296.548,709.5l43.367,14.627,19.131-10.774" transform="translate(1403.287 3864.599)"/>
    <path id="Path_38" data-name="Path 38" class="cls-3" d="M1302.827,714.633" transform="translate(1409.707 3869.021)"/>
    <path id="Path_39" data-name="Path 39" class="cls-1" d="M0,0,42.47,14.544,61.233,3.732" transform="matrix(-0.999, -0.035, 0.035, -0.999, 2533.97, 4579.982)"/>
    <path id="Path_40" data-name="Path 40" class="cls-1" d="M1304.252,841.188l-11.8-18.625,1.49-139.789" transform="translate(1355.495 3841.408)"/>
    <path id="Path_41" data-name="Path 41" class="cls-1" d="M1256.057,846.426l12.7-15.765-3.5-148.028" transform="translate(1316.976 3841.549)"/>
    <g id="Ellipse_4-2" data-name="Ellipse 4" class="cls-1" transform="translate(2643.534 4396.124)">
      <ellipse class="cls-14" cx="30.928" cy="29.065" rx="30.928" ry="29.065"/>
      <ellipse class="cls-2" cx="30.928" cy="29.065" rx="28.428" ry="26.565"/>
    </g>
    <g id="Ellipse_5-2" data-name="Ellipse 5" class="cls-11" transform="translate(2670.425 4421.405)">
      <ellipse class="cls-14" cx="4.039" cy="3.785" rx="4.039" ry="3.785"/>
      <ellipse class="cls-2" cx="4.039" cy="3.785" rx="3.539" ry="3.285"/>
    </g>
    <g id="Ellipse_15-2" data-name="Ellipse 15" class="cls-1" transform="matrix(1, -0.017, 0.017, 1, 2435.883, 4386.269)">
      <ellipse class="cls-14" cx="13.38" cy="30.287" rx="13.38" ry="30.287"/>
      <ellipse class="cls-2" cx="13.38" cy="30.287" rx="10.88" ry="27.787"/>
    </g>
    <g id="Ellipse_16-2" data-name="Ellipse 16" class="cls-1" transform="matrix(1, -0.017, 0.017, 1, 2435.951, 4390.176)">
      <ellipse class="cls-14" cx="10.292" cy="26.379" rx="10.292" ry="26.379"/>
      <ellipse class="cls-2" cx="10.292" cy="26.379" rx="7.792" ry="23.879"/>
    </g>
    <g id="Ellipse_17-3" data-name="Ellipse 17" class="cls-1" transform="matrix(1, -0.017, 0.017, 1, 2432.039, 4401.97)">
      <ellipse class="cls-14" cx="8.234" cy="14.655" rx="8.234" ry="14.655"/>
      <ellipse class="cls-2" cx="8.234" cy="14.655" rx="5.734" ry="12.155"/>
    </g>
    <path id="Path_35-2" data-name="Path 35" class="cls-1" d="M1127.123,653.612c-.274,10.4,15.634,11.839,24.461,8.973,5.543-1.8,5.084-8.973,5.084-8.973" transform="matrix(-0.978, 0.208, -0.208, -0.978, 3796.606, 4795.076)"/>
    <path id="Path_35-3" data-name="Path 35" class="cls-1" d="M1127.123,653.612c-.274,10.4,15.634,11.839,24.461,8.973,5.543-1.8,5.084-8.973,5.084-8.973" transform="translate(3515.681 5414.352) rotate(-159)"/>
    <g id="Ellipse_17-4" data-name="Ellipse 17" class="cls-13" transform="translate(2678.139 4589.188) rotate(178.007)">
      <path class="cls-14" d="M7.308.044C11.286.037,14.5,6.593,14.484,14.687S11.232,29.348,7.253,29.355.061,22.807.076,14.713,3.329.051,7.308.044Z"/>
      <path class="cls-15" d="M 7.246429920196533 29.35545921325684 L 7.251090049743652 28.35544967651367 C 8.753029823303223 28.3527889251709 10.28639984130859 26.98822975158691 11.45804023742676 24.61166000366211 C 12.75771045684814 21.97539901733398 13.47735023498535 18.45005989074707 13.48439025878906 14.68504905700684 C 13.49429035186768 9.394839286804199 12.03857040405273 4.511709213256836 9.775779724121094 2.24467945098877 C 8.98054027557373 1.447949409484863 8.15231990814209 1.043979406356812 7.309470176696777 1.043989419937134 C 5.807529926300049 1.04664945602417 4.274159908294678 2.411209344863892 3.102520227432251 4.787779331207275 C 1.802850127220154 7.424039363861084 1.083210110664368 10.94937896728516 1.076170086860657 14.71437931060791 C 1.066270112991333 20.00458908081055 2.521990060806274 24.88772964477539 4.784780025482178 27.15476036071777 C 5.580019950866699 27.95148849487305 6.40824031829834 28.35545921325684 7.246429920196533 28.35545921325684 L 7.246429920196533 29.35545921325684 M 7.246430397033691 29.35545539855957 C 3.270401000976562 29.35545539855957 0.06103750690817833 22.80269813537598 0.07617011666297913 14.71250915527344 C 0.09131011366844177 6.618379592895508 3.328980207443237 0.05104942992329597 7.307700157165527 0.04398942738771439 C 7.309642791748047 0.04398597776889801 7.312187671661377 0.04398372769355774 7.314129829406738 0.04398372769355774 C 11.29015922546387 0.04398372769355774 14.4995231628418 6.596741676330566 14.48439025878906 14.68691921234131 C 14.4692497253418 22.78106880187988 11.23157978057861 29.348388671875 7.252860069274902 29.35544967651367 C 7.250917434692383 29.35545349121094 7.248372554779053 29.35545539855957 7.246430397033691 29.35545539855957 Z"/>
    </g>
    <path id="Path_7-3" data-name="Path 7" class="cls-4" d="M.37,0A10.313,10.313,0,0,1,5.689,4.155,33.9,33.9,0,0,1,7.472,9.473,29.814,29.814,0,0,1,7.8,18.414,31.416,31.416,0,0,1,6.508,22.94c-.827,2.165-.817,3.417-3.586,4.8S.14,27.262.14,27.262" transform="translate(2672.672 4589.333) rotate(178.007)"/>
    <g id="Ellipse_4-3" data-name="Ellipse 4" class="cls-4" transform="translate(2609.534 4608.005)">
      <ellipse class="cls-14" cx="2.344" cy="2.125" rx="2.344" ry="2.125"/>
      <ellipse class="cls-2" cx="2.344" cy="2.125" rx="1.844" ry="1.625"/>
    </g>
    <g id="Ellipse_4-4" data-name="Ellipse 4" class="cls-4" transform="translate(2619.534 4608.005)">
      <ellipse class="cls-14" cx="2.344" cy="2.125" rx="2.344" ry="2.125"/>
      <ellipse class="cls-2" cx="2.344" cy="2.125" rx="1.844" ry="1.625"/>
    </g>
    <g id="Ellipse_15-3" data-name="Ellipse 15" class="cls-4" transform="translate(2636.433 4614.255) rotate(180)">
      <ellipse class="cls-14" cx="2.57" cy="4.594" rx="2.57" ry="4.594"/>
      <ellipse class="cls-2" cx="2.57" cy="4.594" rx="2.07" ry="4.094"/>
    </g>
    <g id="Ellipse_16-3" data-name="Ellipse 16" class="cls-4" transform="translate(2636.433 4613.662) rotate(180)">
      <ellipse class="cls-14" cx="1.977" cy="4.001" rx="1.977" ry="4.001"/>
      <ellipse class="cls-2" cx="1.977" cy="4.001" rx="1.477" ry="3.501"/>
    </g>
    <g id="Ellipse_17-5" data-name="Ellipse 17" class="cls-4" transform="translate(2637.224 4611.884) rotate(180)">
      <ellipse class="cls-14" cx="1.582" cy="2.223" rx="1.582" ry="2.223"/>
      <ellipse class="cls-2" cx="1.582" cy="2.223" rx="1.082" ry="1.723"/>
    </g>
    <g id="Ellipse_15-4" data-name="Ellipse 15" class="cls-4" transform="translate(2598.003 4605.105) rotate(-1)">
      <ellipse class="cls-14" cx="2.57" cy="4.594" rx="2.57" ry="4.594"/>
      <ellipse class="cls-2" cx="2.57" cy="4.594" rx="2.07" ry="4.094"/>
    </g>
    <g id="Ellipse_16-4" data-name="Ellipse 16" class="cls-4" transform="translate(2598.014 4605.698) rotate(-1)">
      <ellipse class="cls-14" cx="1.977" cy="4.001" rx="1.977" ry="4.001"/>
      <ellipse class="cls-2" cx="1.977" cy="4.001" rx="1.477" ry="3.501"/>
    </g>
    <g id="Ellipse_17-6" data-name="Ellipse 17" class="cls-4" transform="translate(2597.254 4607.49) rotate(-1)">
      <ellipse class="cls-14" cx="1.582" cy="2.223" rx="1.582" ry="2.223"/>
      <ellipse class="cls-2" cx="1.582" cy="2.223" rx="1.082" ry="1.723"/>
    </g>
  </g>
</svg>
